<svg width="211" height="44" viewBox="0 0 211 44" fill="none" xmlns="http://www.w3.org/2000/svg">
<g clip-path="url(#clip0_447_2481)">
<path d="M24.6592 29.4804C24.6592 25.8126 24.6592 22.3348 24.6592 18.8588C24.6592 18.6366 24.6793 18.4143 24.6556 18.1959C24.6099 17.7666 24.7232 17.5824 25.1947 17.59C26.9582 17.6204 28.7235 17.6242 30.4889 17.59C31.0207 17.5786 31.0682 17.8179 31.0664 18.2605C31.0536 21.2008 31.0591 24.1411 31.0591 27.0814C31.0591 30.3694 31.0591 33.6573 31.0591 36.9471C31.0591 37.7847 31.1468 37.7524 30.2623 37.7524C28.8314 37.7524 27.4023 37.7391 25.9714 37.7581C25.4962 37.7638 25.1051 37.6328 24.6994 37.3669C19.1877 33.7351 13.6651 30.1224 8.14426 26.504C7.89207 26.3388 7.6417 26.1754 7.3292 25.9703C7.11721 26.3407 7.19214 26.6864 7.19214 27.0055C7.18483 30.2307 7.18848 33.4559 7.18848 36.6812C7.18848 36.8711 7.17569 37.061 7.19031 37.251C7.21772 37.6005 7.1099 37.7619 6.7371 37.7581C4.91144 37.7429 3.08579 37.7448 1.26013 37.7581C0.887324 37.76 0.783158 37.5815 0.806915 37.2358C0.819708 37.0478 0.808743 36.8559 0.808743 36.666C0.808743 30.6581 0.808743 24.6502 0.808743 18.6442C0.808743 18.4219 0.816053 18.2016 0.808743 17.9794C0.799605 17.6869 0.951286 17.6014 1.20713 17.6033C2.88111 17.6071 4.55326 17.609 6.22723 17.6033C6.62745 17.6033 6.89974 17.8711 7.19945 18.0667C12.6965 21.6681 18.1899 25.2751 23.6852 28.8802C23.9593 29.0606 24.2407 29.2259 24.6592 29.4842V29.4804Z" fill="#2E2E2E"/>
<path d="M90.489 13.2521C90.9697 12.9861 91.284 12.5474 91.6513 12.1808C93.6689 10.1674 95.6754 8.1426 97.6765 6.11401C97.9908 5.7949 98.296 5.60116 98.7803 5.60686C101.364 5.63915 103.95 5.62205 106.534 5.62395C106.651 5.62395 106.768 5.63915 107.059 5.66194C101.545 11.5654 96.1213 17.37 90.6499 23.2279C83.2942 15.7536 75.9733 8.31735 68.6396 0.86588C68.8535 0.609456 69.1093 0.721523 69.3268 0.719623C71.9419 0.710126 74.557 0.736718 77.1722 0.69683C77.7789 0.687333 78.1901 0.905768 78.6031 1.32174C82.4207 5.17189 86.2511 9.01064 90.0779 12.8513C90.2076 12.9823 90.3428 13.1077 90.489 13.2521Z" fill="#2E2E2E"/>
<path d="M112.638 13.4476C109.189 17.3281 105.754 21.1954 102.247 25.1424C107.945 31.0116 113.638 36.8733 119.367 42.7748C118.948 42.9324 118.59 42.9799 118.228 42.997C116.466 43.0806 114.707 43.1604 112.945 43.2515C112.369 43.2819 111.794 43.3256 111.222 43.3978C110.759 43.4567 110.434 43.2914 110.103 42.9476C107.581 40.3378 105.037 37.7508 102.503 35.1543C99.3612 31.9366 96.2216 28.7152 93.082 25.4938C92.9742 25.3836 92.8481 25.2886 92.8115 25.0854C94.5367 23.2467 96.2728 21.391 98.0144 19.541C99.8016 17.6415 101.598 15.7554 103.374 13.8446C103.738 13.4533 104.116 13.2842 104.646 13.2899C107.081 13.3165 109.515 13.2994 111.949 13.3051C112.148 13.3051 112.364 13.2273 112.638 13.4457V13.4476Z" fill="#2E2E2E"/>
<path d="M79.3169 25.2034C76.8114 22.622 74.3389 20.073 71.8644 17.5259C72.0326 17.3435 72.2226 17.4157 72.3908 17.4157C74.9145 17.41 77.4401 17.4195 79.9638 17.4043C80.3787 17.4024 80.704 17.486 81.0201 17.7994C87.5095 24.2328 94.0099 30.6547 100.507 37.0805C100.594 37.1679 100.671 37.2648 100.753 37.3578C100.653 37.6123 100.441 37.5041 100.282 37.506C97.5442 37.5136 94.8067 37.4984 92.0709 37.5231C91.6031 37.5269 91.2778 37.373 90.9525 37.0482C88.754 34.8658 86.5428 32.6985 84.3334 30.5275C83.8436 30.0469 83.8345 30.0469 83.3611 30.5731C81.4258 32.7156 79.4887 34.8563 77.5662 37.0102C77.2848 37.3255 77.0198 37.5269 76.5666 37.5231C73.8601 37.4984 71.1536 37.5117 68.4471 37.5079C68.3374 37.5079 68.204 37.5611 68.0889 37.3445C71.7913 33.3424 75.5084 29.3232 79.3206 25.2034H79.3169Z" fill="#2E2E2E"/>
<path d="M115.224 17.9817C117.755 17.9817 120.18 17.9931 122.603 17.9722C123.04 17.9684 123.16 18.2875 123.343 18.5591C124.81 20.7282 126.271 22.9012 127.733 25.0741C128.882 26.7817 130.026 28.4912 131.183 30.1931C131.353 30.4419 131.461 30.7591 131.797 30.9111C131.974 30.6604 132.157 30.4115 132.329 30.1551C134.896 26.3221 137.475 22.4947 140.015 18.6446C140.35 18.1374 140.688 17.9589 141.269 17.9684C143.515 18.0045 145.763 17.9836 148.012 17.9836C148.102 18.3103 147.861 18.4603 147.729 18.6503C143.453 24.8234 139.165 30.9871 134.898 37.1678C134.598 37.6009 134.295 37.7775 133.785 37.7642C132.327 37.7301 130.867 37.7471 129.407 37.7566C129.056 37.7585 128.796 37.6997 128.562 37.3616C124.178 30.9966 119.779 24.6449 115.382 18.2875C115.348 18.2381 115.326 18.1811 115.222 17.9836L115.224 17.9817Z" fill="#2E2E2E"/>
<path d="M210.564 37.7488C210.142 37.7488 209.839 37.7488 209.537 37.7488C201.723 37.7488 193.909 37.7488 186.094 37.7488C185.912 37.7488 185.729 37.7336 185.548 37.7507C185.203 37.783 185.033 37.652 185.066 37.2721C185.082 37.084 185.067 36.8941 185.067 36.7041C185.067 30.8273 185.067 24.9505 185.067 19.0736C185.067 18.9464 185.066 18.821 185.067 18.6937C185.082 17.9909 185.082 17.9815 185.775 17.9796C187.416 17.9739 189.059 17.9815 190.7 17.9758C191.484 17.972 191.392 17.9796 191.392 18.6899C191.392 22.6085 191.392 26.5251 191.392 30.4436C191.392 31.23 191.783 31.6232 192.564 31.6232C198.22 31.6232 203.874 31.6232 209.53 31.6232C209.742 31.6232 209.958 31.6384 210.168 31.6194C210.506 31.589 210.57 31.7713 210.568 32.0733C210.561 33.9348 210.564 35.7962 210.564 37.745V37.7488Z" fill="#2E2E2E"/>
<path d="M63.8297 22.4963V17.6338H42.9069H36.5381V22.4963V25.279V30.1415V32.9261V35.3574V37.7886H63.8297V32.9261H42.9069V30.1415H61.2237V25.279H42.9069V22.4963H63.8297Z" fill="#2E2E2E"/>
<path d="M179.457 22.4963V17.6338H158.534H152.167V22.4963V25.279V30.1415V32.9261V35.3574V37.7886H179.457V32.9261H158.534V30.1415H176.851V25.279H158.534V22.4963H179.457Z" fill="#2E2E2E"/>
</g>
<defs>
<clipPath id="clip0_447_2481">
<rect width="209.766" height="42.7125" fill="white" transform="translate(0.811523 0.696777)"/>
</clipPath>
</defs>
</svg>
